      <svg viewBox="0 0 80 80" xmlns="http://www.w3.org/2000/svg">
        <path
          fill="#FF0066"
          d="M35.7,-60.8C44.6,-56.7,48.9,-43.7,51.4,-32.1C53.9,-20.5,54.5,-10.3,51.4,-1.8C48.4,6.7,41.7,13.5,38.8,24.3C35.8,35.1,36.7,50,30.8,51.2C25,52.3,12.5,39.7,2.6,35.1C-7.2,30.6,-14.5,34.1,-18.8,32.1C-23.2,30.1,-24.6,22.6,-35.7,16.3C-46.8,10,-67.4,5,-68.8,-0.8C-70.2,-6.6,-52.3,-13.2,-43.9,-24.2C-35.6,-35.2,-36.9,-50.6,-31.1,-56.5C-25.4,-62.5,-12.7,-58.9,0.3,-59.5C13.4,-60.1,26.8,-64.8,35.7,-60.8Z"
          transform="translate(28 20)"
        />
      </svg>